<?xml version="1.0" encoding="UTF-8"?>
<svg xmlns="http://www.w3.org/2000/svg" xmlns:xlink="http://www.w3.org/1999/xlink" width="16px" height="16px" viewBox="0 0 16 16" version="1.1">
<g id="surface1">
<path style=" stroke:none;fill-rule:nonzero;fill:rgb(90.980392%,18.039216%,14.509804%);fill-opacity:1;" d="M 5.199219 14.597656 L 6.851562 14.597656 C 6.5625 14.0625 6.398438 13.449219 6.398438 12.796875 C 6.398438 11.976562 6.660156 11.21875 7.101562 10.597656 L 5.199219 10.597656 Z M 14.398438 5.398438 L 14.398438 9.265625 C 13.96875 9.09375 13.496094 9 13 9 L 10.398438 9 L 10.398438 5.398438 Z M 9.199219 5.398438 L 9.199219 9.132812 C 8.957031 9.199219 8.722656 9.289062 8.5 9.398438 L 5.199219 9.398438 L 5.199219 5.398438 Z M 14.398438 4.199219 L 14.398438 2.796875 C 14.398438 1.363281 13.234375 0.199219 11.800781 0.199219 L 10.398438 0.199219 L 10.398438 4.199219 Z M 9.199219 0.199219 L 5.199219 0.199219 L 5.199219 4.199219 L 9.199219 4.199219 Z M 4 0.199219 L 2.601562 0.199219 C 1.164062 0.199219 0 1.363281 0 2.796875 L 0 4.199219 L 4 4.199219 Z M 0 5.398438 L 0 9.398438 L 4 9.398438 L 4 5.398438 Z M 0 10.597656 L 0 12 C 0 13.433594 1.164062 14.597656 2.601562 14.597656 L 4 14.597656 L 4 10.597656 Z M 13 9.796875 C 14.65625 9.796875 16 11.140625 16 12.796875 C 16 14.402344 14.742188 15.710938 13.160156 15.792969 L 13.003906 15.796875 L 13.003906 15.800781 C 12.671875 15.804688 12.402344 15.535156 12.398438 15.203125 C 12.398438 14.902344 12.625 14.648438 12.914062 14.609375 L 12.996094 14.601562 L 13 14.597656 C 13.996094 14.597656 14.800781 13.792969 14.800781 12.796875 C 14.800781 11.84375 14.058594 11.066406 13.125 11.003906 L 13 11 C 12.667969 11 12.398438 10.730469 12.398438 10.398438 C 12.398438 10.09375 12.625 9.84375 12.917969 9.804688 Z M 10.199219 9.796875 C 10.53125 9.796875 10.800781 10.066406 10.800781 10.398438 C 10.800781 10.703125 10.574219 10.953125 10.28125 10.992188 L 10.199219 11 C 9.207031 11 8.398438 11.804688 8.398438 12.796875 C 8.398438 13.75 9.140625 14.53125 10.078125 14.59375 L 10.199219 14.597656 C 10.53125 14.597656 10.800781 14.867188 10.800781 15.199219 C 10.800781 15.5 10.574219 15.753906 10.28125 15.792969 L 10.199219 15.796875 C 8.542969 15.796875 7.199219 14.453125 7.199219 12.796875 C 7.199219 11.195312 8.457031 9.886719 10.039062 9.800781 Z M 13 12.199219 C 13.332031 12.199219 13.601562 12.46875 13.601562 12.796875 C 13.601562 13.101562 13.375 13.351562 13.082031 13.394531 L 13 13.398438 L 10.199219 13.398438 C 9.867188 13.398438 9.601562 13.128906 9.601562 12.796875 C 9.601562 12.496094 9.824219 12.242188 10.117188 12.203125 L 10.199219 12.199219 Z M 13 12.199219 "/>
</g>
</svg>
